<?xml version="1.0" encoding="UTF-8" standalone="no"?>
<!-- Created with Inkscape (http://www.inkscape.org/) -->

<svg
   xmlns:dc="http://purl.org/dc/elements/1.1/"
   xmlns:cc="http://creativecommons.org/ns#"
   xmlns:rdf="http://www.w3.org/1999/02/22-rdf-syntax-ns#"
   xmlns:svg="http://www.w3.org/2000/svg"
   xmlns="http://www.w3.org/2000/svg"
   xmlns:sodipodi="http://sodipodi.sourceforge.net/DTD/sodipodi-0.dtd"
   xmlns:inkscape="http://www.inkscape.org/namespaces/inkscape"
   width="48"
   height="48"
   viewBox="0 0 12.7 12.7"
   version="1.1"
   id="svg995"
   inkscape:version="0.92.3 (2405546, 2018-03-11)"
   sodipodi:docname="gray.svg">
  <defs
     id="defs989" />
  <sodipodi:namedview
     id="base"
     pagecolor="#ffffff"
     bordercolor="#666666"
     borderopacity="1.0"
     inkscape:pageopacity="0.0"
     inkscape:pageshadow="2"
     inkscape:zoom="7.9195959"
     inkscape:cx="33.570353"
     inkscape:cy="-5.0136113"
     inkscape:document-units="mm"
     inkscape:current-layer="g5400"
     showgrid="false"
     units="px"
     inkscape:snap-global="false"
     inkscape:window-width="1195"
     inkscape:window-height="1282"
     inkscape:window-x="101"
     inkscape:window-y="838"
     inkscape:window-maximized="0" />
  <metadata
     id="metadata992">
    <rdf:RDF>
      <cc:Work
         rdf:about="">
        <dc:format>image/svg+xml</dc:format>
        <dc:type
           rdf:resource="http://purl.org/dc/dcmitype/StillImage" />
        <dc:title></dc:title>
      </cc:Work>
    </rdf:RDF>
  </metadata>
  <g
     inkscape:label="Layer 1"
     inkscape:groupmode="layer"
     id="layer1"
     transform="translate(0,-284.29999)">
    <g
       id="g5400"
       transform="matrix(1.329549,0,0,1.329549,-2.5558937,-95.689828)"
       style="opacity:0.7">
      <path
         style="display:inline;opacity:1;vector-effect:none;fill:#918b82;fill-opacity:1;stroke:#000000;stroke-width:0.1345299;stroke-linecap:butt;stroke-linejoin:miter;stroke-miterlimit:4;stroke-dasharray:none;stroke-dashoffset:0;stroke-opacity:1"
         d="m 8.2528532,294.74613 c 0.1064547,-0.005 -0.204714,-1.19115 -0.4293542,-1.31269 0.1637853,-0.0642 0.2422223,-0.14265 0.3173517,-0.25628 0.1376072,-0.20813 0.1080124,-0.72286 0.1080124,-0.72286 l -0.1744809,-0.0249 c -0.079651,0.34007 -0.191683,0.60424 -0.5483737,0.73116 -0.2588758,0.0626 -0.6191012,-0.079 -0.8474839,-0.21603 -0.282121,-0.16927 -0.6979294,-0.69793 -0.6979294,-0.69793 l 0.5649892,-0.44866 c 0,0 1.0741432,0.62411 1.7946748,0.62315 0.634561,-8.8e-4 1.6678668,-0.1019 2.1104048,-0.55668 0.259537,-0.26672 0.432718,-0.73965 0.282493,-1.08013 -0.19703,-0.44657 -0.8096534,-0.64177 -1.2961521,-0.68131 -0.3840907,-0.0312 -1.0967457,0.36558 -1.0967457,0.36558 -0.038564,-0.92603 -0.7341849,-1.9807 -1.4664531,-2.48913 -0.6652076,-0.31924 -1.6185277,-0.21182 -2.2256625,0.20747 -0.3043362,0.21018 -0.5413459,0.86097 -0.5413459,0.86097 0,0 0.1603897,3.07271 -0.3196983,3.74712 -0.2579499,0.36235 -0.578516,1.62223 -0.3821989,1.92761 1.3745333,0.33171 3.2709759,0.39892 4.8479527,0.0236 z"
         id="path4552"
         inkscape:connector-curvature="0"
         sodipodi:nodetypes="ccsccssssccscccscscc" />
      <path
         sodipodi:nodetypes="czssc"
         inkscape:connector-curvature="0"
         id="path4530"
         d="m 4.1067977,289.04784 c 0.2198866,0.68795 0.3071822,1.59831 0.2803818,2.18879 -0.026801,0.59048 -0.2517383,1.33808 -0.7286397,1.46632 -0.7814838,0.21014 -1.1429117,-0.73948 -1.0624765,-1.3541 0.1277642,-0.97627 0.9394196,-1.76269 1.5107344,-2.30101 z"
         style="display:inline;opacity:1;fill:#000000;stroke:#000000;stroke-width:0.04652859px;stroke-linecap:butt;stroke-linejoin:miter;stroke-opacity:1" />
      <path
         sodipodi:nodetypes="csccssssccscccsssc"
         inkscape:connector-curvature="0"
         id="path4544"
         d="m 7.3598352,293.55936 c 0,0 0.6184138,-0.13627 0.7810155,-0.3822 0.1376072,-0.20813 0.1080124,-0.72286 0.1080124,-0.72286 l -0.1744809,-0.0249 c -0.079651,0.34007 -0.191683,0.60424 -0.5483737,0.73116 -0.2588758,0.0626 -0.6191012,-0.079 -0.8474839,-0.21603 -0.282121,-0.16927 -0.6979294,-0.69793 -0.6979294,-0.69793 l 0.5649892,-0.44866 c 0,0 1.0741432,0.62411 1.7946748,0.62315 0.634561,-8.8e-4 1.6678668,-0.1019 2.1104048,-0.55668 0.259537,-0.26672 0.432718,-0.73965 0.282493,-1.08013 -0.19703,-0.44657 -0.8096534,-0.64177 -1.2961521,-0.68131 -0.3840907,-0.0312 -1.0967457,0.36558 -1.0967457,0.36558 -0.038564,-0.92603 -0.7341849,-1.9807 -1.4664531,-2.48913 -0.6652076,-0.31924 -1.6185277,-0.21182 -2.2256625,0.20747 -0.3043362,0.21018 -0.4251878,0.55847 -0.5371915,0.90666 -0.3756256,1.16775 0.1562353,3.02702 -0.3238527,3.70143 -0.2579499,0.36235 -0.578516,1.62223 -0.3821989,1.92761"
         style="display:inline;opacity:1;fill:none;stroke:#000000;stroke-width:0.1345299;stroke-linecap:butt;stroke-linejoin:miter;stroke-miterlimit:4;stroke-dasharray:none;stroke-opacity:1" />
      <path
         style="display:inline;opacity:1;fill:#898989;fill-opacity:1;stroke:#000000;stroke-width:0.04660186;stroke-linecap:butt;stroke-linejoin:miter;stroke-miterlimit:4;stroke-dasharray:none;stroke-opacity:1"
         d="m 4.1441868,288.80595 c -0.2010315,-0.0682 -0.4788621,-0.20189 -0.5426495,-0.40438 -0.070344,-0.2233 0.071106,-0.55859 0.211504,-0.66976 0.1403979,-0.11117 0.1764913,-0.0871 0.3710981,-0.0277 -0.1108995,-0.31661 -0.4269811,-1.25264 0.439669,-1.59382 0.3808424,-0.14992 1.0352813,0.054 1.378185,1.01929 0.1196491,-0.20381 0.218306,-0.17463 0.3902264,-0.18502 0.1719194,-0.0104 0.3770518,0.30921 0.4171329,0.56401 0.043319,0.2754 -0.2941453,0.5347 -0.5052595,0.71677 -0.2648318,0.22839 -0.5486259,0.27322 -0.8460181,0.32901 -0.2502233,0.0469 -0.5130977,0.009 -0.7637656,-0.0353 -0.2464496,-0.0438 -0.3394323,-0.0903 -0.3394323,-0.0903"
         id="path4548"
         inkscape:connector-curvature="0"
         sodipodi:nodetypes="cszcsczssssc" />
      <path
         sodipodi:nodetypes="cssssssssc"
         inkscape:connector-curvature="0"
         id="path4546"
         d="m 4.1699552,288.81724 c -0.2010315,-0.0683 -0.5046305,-0.21318 -0.5684179,-0.41567 -0.070344,-0.2233 0.00995,-0.55065 0.211504,-0.66976 0.3438703,-0.20322 0.8358977,0.21144 1.2337759,0.17625 0.6411947,-0.0567 0.9107078,-0.9194 1.2161498,-0.95764 0.3867313,-0.0484 0.4968789,0.29861 0.5463857,0.55813 0.052238,0.27384 -0.2941453,0.5347 -0.5052595,0.71677 -0.2648318,0.22839 -0.5486259,0.27322 -0.8460181,0.32901 -0.2502233,0.0469 -0.5130977,0.009 -0.7637656,-0.0353 -0.2464496,-0.0438 -0.7050141,-0.22326 -0.7050141,-0.22326"
         style="display:inline;opacity:1;fill:none;stroke:#000000;stroke-width:0.09935869;stroke-linecap:butt;stroke-linejoin:miter;stroke-miterlimit:4;stroke-dasharray:none;stroke-opacity:1" />
      <path
         sodipodi:nodetypes="cccccc"
         inkscape:connector-curvature="0"
         id="path4550"
         d="m 4.1772993,287.58493 c 0.5645267,-0.28726 1.1491083,-0.47425 1.744911,-0.60514 l 0.088127,0.14688 c -0.2149081,0.2637 -0.3377757,0.53641 -0.7637658,0.75789 -0.261313,0.065 -0.6405211,-0.035 -1.057522,-0.188 z"
         style="display:inline;opacity:1;fill:#000000;stroke:none;stroke-width:0.04652859px;stroke-linecap:butt;stroke-linejoin:miter;stroke-opacity:1" />
      <ellipse
         ry="1.0638567"
         rx="0.92285383"
         cy="289.80573"
         cx="7.5672445"
         id="path4574"
         style="display:inline;opacity:1;vector-effect:none;fill:#ffffff;fill-opacity:1;fill-rule:evenodd;stroke:#000000;stroke-width:0.15106037;stroke-linecap:butt;stroke-linejoin:miter;stroke-miterlimit:4;stroke-dasharray:none;stroke-dashoffset:0;stroke-opacity:1;marker:none" />
      <ellipse
         ry="1.1696898"
         rx="1.0521874"
         cy="290.28748"
         cx="5.698957"
         id="path4572"
         style="display:inline;opacity:1;vector-effect:none;fill:#ffffff;fill-opacity:1;fill-rule:evenodd;stroke:#000000;stroke-width:0.15106037;stroke-linecap:butt;stroke-linejoin:miter;stroke-miterlimit:4;stroke-dasharray:none;stroke-dashoffset:0;stroke-opacity:1;marker:none" />
      <ellipse
         ry="0.79901654"
         rx="0.65801358"
         cy="290.35211"
         cx="5.8223319"
         id="path4595"
         style="display:inline;opacity:1;vector-effect:none;fill:#000000;fill-opacity:1;fill-rule:evenodd;stroke:none;stroke-width:0.15106037;stroke-linecap:butt;stroke-linejoin:miter;stroke-miterlimit:4;stroke-dasharray:none;stroke-dashoffset:0;stroke-opacity:1;marker:none" />
      <ellipse
         ry="0.75201553"
         rx="0.64038825"
         cy="289.83511"
         cx="7.8139992"
         id="path4597"
         style="display:inline;opacity:1;vector-effect:none;fill:#000000;fill-opacity:1;fill-rule:evenodd;stroke:none;stroke-width:0.15106037;stroke-linecap:butt;stroke-linejoin:miter;stroke-miterlimit:4;stroke-dasharray:none;stroke-dashoffset:0;stroke-opacity:1;marker:none" />
      <path
         sodipodi:nodetypes="cssscsc"
         inkscape:connector-curvature="0"
         id="path4599"
         d="m 9.4472836,290.06423 c 0,0 0.2024738,-0.21508 0.3348811,-0.27025 0.2782803,-0.11597 0.6219993,-0.21912 0.8988933,-0.0999 0.211887,0.0912 0.383119,0.32408 0.417134,0.55226 0.03444,0.23102 -0.24088,0.65802 -0.24088,0.65802 0,0 -0.36213,-0.50242 -0.622763,-0.65214 -0.233947,-0.1344 -0.7872654,-0.18801 -0.7872654,-0.18801 z"
         style="display:inline;opacity:1;fill:#000000;stroke:none;stroke-width:0.04652859px;stroke-linecap:butt;stroke-linejoin:miter;stroke-opacity:1" />
      <path
         sodipodi:nodetypes="ccascc"
         inkscape:connector-curvature="0"
         id="path4601"
         d="m 6.5273482,291.79152 -0.5463866,0.45238 c 0.2491935,0.34093 0.6558235,0.78764 1.1221485,0.88715 0.2647756,0.0565 0.5009118,0.0796 0.7872651,-0.19976 0.1257304,-0.12266 0.1997551,-0.48763 0.1997551,-0.48763 -0.8349928,-0.17276 -1.1420465,-0.42006 -1.5627821,-0.65214 z"
         style="display:inline;opacity:1;fill:#000000;stroke:none;stroke-width:0.04652859px;stroke-linecap:butt;stroke-linejoin:miter;stroke-opacity:1" />
      <path
         sodipodi:nodetypes="cccc"
         inkscape:connector-curvature="0"
         id="path4603"
         d="m 6.0573378,292.1734 0.3466324,-0.27026 c 0.4620469,0.28291 0.6600768,0.65517 0.5581364,1.0634 -0.4123964,-0.0705 -0.6056781,-0.52439 -0.9047688,-0.79314 z"
         style="display:inline;opacity:1;fill:#555555;stroke:#000000;stroke-width:0.04652859px;stroke-linecap:butt;stroke-linejoin:miter;stroke-opacity:1;fill-opacity:1" />
      <path
         sodipodi:nodetypes="cc"
         inkscape:connector-curvature="0"
         id="path4605"
         d="m 5.7929577,292.35553 c 0.3316821,-0.22885 0.6574889,-0.68095 0.9752693,-0.68739"
         style="display:inline;opacity:1;fill:none;stroke:#000000;stroke-width:0.1169443;stroke-linecap:round;stroke-linejoin:miter;stroke-miterlimit:4;stroke-dasharray:none;stroke-opacity:1" />
      <path
         sodipodi:nodetypes="csscccsscccsscc"
         inkscape:connector-curvature="0"
         d="m 7.6964975,292.42603 c 0,0 -0.03348,0.13919 0.00587,0.18801 0.035475,0.044 0.1329047,0.0596 0.1880039,0.047 0.074553,-0.017 0.1527542,-0.15275 0.1527542,-0.15275 z m -0.5552004,-0.21444 c 0,0 -0.063373,0.17511 -0.026438,0.23794 0.056036,0.0953 0.2315513,0.13484 0.3407581,0.1175 0.097343,-0.0155 0.1762532,-0.16156 0.1762532,-0.16156 -0.1657372,-0.051 -0.3174693,-0.11346 -0.4905733,-0.19388 z m -0.1145632,-0.0441 c 0,0 -0.1303006,0.15134 -0.2291319,0.16451 -0.183472,0.0245 -0.3626029,-0.0609 -0.4053822,-0.22913 -0.026159,-0.10288 0.123378,-0.23501 0.123378,-0.23501 0.1413389,0.10818 0.3150017,0.20712 0.5111361,0.29963 z"
         style="display:inline;opacity:1;fill:#ffffff;stroke:#000000;stroke-width:0.04652859px;stroke-linecap:butt;stroke-linejoin:miter;stroke-opacity:1"
         id="path4611" />
      <path
         sodipodi:nodetypes="csscsc"
         inkscape:connector-curvature="0"
         id="path4614"
         d="m 4.1609901,287.65604 c 0,0 -0.2128116,-0.70163 -0.078933,-1.03028 0.1402187,-0.3442 0.5379296,-0.60582 0.8391763,-0.56498 0.8434837,0.11434 1.0468933,1.0095 1.0468933,1.0095 0,0 -0.3030599,0.58171 -0.743627,0.77271 -0.3189584,0.13827 -0.7580452,-0.13768 -1.0635096,-0.18695 z"
         style="display:inline;opacity:1;fill:none;stroke:#000000;stroke-width:0.09935869;stroke-linecap:butt;stroke-linejoin:miter;stroke-miterlimit:4;stroke-dasharray:none;stroke-opacity:1" />
    </g>
  </g>
</svg>
