<?xml version="1.0" encoding="UTF-8" standalone="no"?>
<!-- Created with Inkscape (http://www.inkscape.org/) -->

<svg
   xmlns:dc="http://purl.org/dc/elements/1.1/"
   xmlns:cc="http://creativecommons.org/ns#"
   xmlns:rdf="http://www.w3.org/1999/02/22-rdf-syntax-ns#"
   xmlns:svg="http://www.w3.org/2000/svg"
   xmlns="http://www.w3.org/2000/svg"
   xmlns:sodipodi="http://sodipodi.sourceforge.net/DTD/sodipodi-0.dtd"
   xmlns:inkscape="http://www.inkscape.org/namespaces/inkscape"
   width="48"
   height="48"
   viewBox="0 0 12.7 12.7"
   version="1.1"
   id="svg995"
   inkscape:version="0.92.3 (2405546, 2018-03-11)"
   sodipodi:docname="notfine.svg">
  <defs
     id="defs989" />
  <sodipodi:namedview
     id="base"
     pagecolor="#ffffff"
     bordercolor="#666666"
     borderopacity="1.0"
     inkscape:pageopacity="0.0"
     inkscape:pageshadow="2"
     inkscape:zoom="7.9195959"
     inkscape:cx="7.116983"
     inkscape:cy="-5.0136113"
     inkscape:document-units="mm"
     inkscape:current-layer="layer1"
     showgrid="false"
     units="px"
     inkscape:snap-global="false"
     inkscape:window-width="1195"
     inkscape:window-height="1282"
     inkscape:window-x="101"
     inkscape:window-y="838"
     inkscape:window-maximized="0" />
  <metadata
     id="metadata992">
    <rdf:RDF>
      <cc:Work
         rdf:about="">
        <dc:format>image/svg+xml</dc:format>
        <dc:type
           rdf:resource="http://purl.org/dc/dcmitype/StillImage" />
        <dc:title></dc:title>
      </cc:Work>
    </rdf:RDF>
  </metadata>
  <g
     inkscape:label="Layer 1"
     inkscape:groupmode="layer"
     id="layer1"
     transform="translate(0,-284.29999)">
    <g
       id="g5313"
       transform="matrix(0.17585608,0,0,0.17585608,5.8880912,253.2223)">
      <g
         transform="matrix(0.94687867,0,0,0.94687867,-108.54713,166.90915)"
         id="g4694"
         style="display:inline;opacity:1">
        <path
           style="opacity:1;vector-effect:none;fill:#ffcc00;fill-opacity:1;stroke:#000000;stroke-width:0.86500001;stroke-linecap:butt;stroke-linejoin:miter;stroke-miterlimit:4;stroke-dasharray:none;stroke-dashoffset:0;stroke-opacity:1"
           d="m 104.22693,51.877232 9.26042,9.165923 c 0,0 4.03781,-17.767886 10.20536,-23.8125 1.93036,-1.891884 6.14123,-8.985642 6.04761,-9.921874 l 1.79539,10.394344 c 2.29532,-3.285168 5.3943,-5.486123 7.74851,-8.220983 2.81854,-3.274271 4.33143,-6.679108 4.63021,-10.205356 0,0 5.22443,6.745538 6.70908,10.110864 2.16522,4.907995 2.95253,9.844463 3.40179,14.930057 0.84394,9.55336 -2.07887,28.44271 -2.07887,28.44271 L 99.9747,73.043898 Z"
           id="path4660"
           inkscape:connector-curvature="0"
           sodipodi:nodetypes="ccsccscssccc" />
        <path
           sodipodi:nodetypes="ccscccccsccc"
           inkscape:connector-curvature="0"
           id="path4676"
           d="m 105.17187,55.845982 9.35491,10.96131 c 0.81632,-0.408157 2.70021,-14.689484 8.31548,-21.544643 1.71275,-2.090934 5.47978,-9.17463 5.38616,-10.110862 0.16239,3.464781 1.22405,6.929563 3.40178,10.394344 0.0275,-4.230109 6.62273,-9.738355 9.26042,-14.079614 -0.60605,3.313662 -0.53343,5.305454 -0.37798,7.465031 0,0 4.84646,-5.916664 5.29167,-10.394344 2.16522,4.907995 4.90453,9.07837 5.66965,14.07961 1.50518,9.838604 -2.36235,29.765627 -2.36235,29.765627 l -47.43601,0.188987 z"
           style="opacity:1;vector-effect:none;fill:#ffcc00;fill-opacity:1;stroke:#000000;stroke-width:0.514;stroke-linecap:butt;stroke-linejoin:miter;stroke-miterlimit:4;stroke-dasharray:none;stroke-dashoffset:0;stroke-opacity:1" />
      </g>
      <g
         style="display:inline;opacity:1"
         transform="translate(-98.328213,172.093)"
         id="g4641">
        <path
           style="fill:#ffcc00;stroke:#000000;stroke-width:0.86500001;stroke-linecap:butt;stroke-linejoin:miter;stroke-miterlimit:4;stroke-dasharray:none;stroke-opacity:1"
           d="M 73.365483,63.165574 C 71.182782,59.803441 69.000081,58.236191 66.81738,53.076151 62.100204,41.924458 72.505002,29.168525 78.577241,21.605164 76.486852,25.601507 75.996649,30.664641 78.176336,37.507701 L 84.1899,24.545129 c 0.368351,6.55533 4.720645,13.736245 4.409946,18.307961 0.691834,9.442517 0.119724,13.199808 -4.659488,20.77661 z"
           id="path4635"
           inkscape:connector-curvature="0"
           sodipodi:nodetypes="cscccccc" />
        <path
           sodipodi:nodetypes="cscccccc"
           inkscape:connector-curvature="0"
           id="path4637"
           d="m 74.731503,63.022975 c -2.965174,-3.855575 -5.950216,-9.70799 -6.37639,-13.520272 -0.952611,-8.521448 1.924136,-13.414477 6.937855,-19.659384 -0.248717,4.186059 0.577118,7.006867 2.274859,12.595849 2.603813,-2.669716 3.753079,-7.08489 5.566629,-10.702921 0.538844,3.300254 2.933722,7.806371 2.9853,10.642241 0.396669,7.056612 0.714816,13.431046 -4.105852,21.073569 z"
           style="fill:#ffcc00;stroke:#000000;stroke-width:0.514;stroke-linecap:butt;stroke-linejoin:miter;stroke-miterlimit:4;stroke-dasharray:none;stroke-opacity:1" />
      </g>
      <path
         style="display:inline;opacity:1;vector-effect:none;fill:#e8a02b;fill-opacity:1;stroke:#000000;stroke-width:0.76499999;stroke-linecap:butt;stroke-linejoin:miter;stroke-miterlimit:4;stroke-dasharray:none;stroke-dashoffset:0;stroke-opacity:1"
         d="m 13.447144,236.12394 c 0.605351,-0.0288 -1.1641,-6.77345 -2.441509,-7.46457 0.93136,-0.36497 1.377389,-0.81119 1.80461,-1.45735 0.782499,-1.18352 0.614209,-4.11049 0.614209,-4.11049 l -0.99218,-0.14174 c -0.45293,1.93381 -1.089999,3.436 -3.1183097,4.15774 -1.472089,0.35601 -3.520499,-0.44921 -4.81919,-1.22843 -1.604272,-0.96256 -3.96875298,-3.96875 -3.96875298,-3.96875 l 3.21279298,-2.55133 c 0,0 6.108081,3.54902 10.2053607,3.54352 3.608411,-0.005 9.48427,-0.57944 12.000751,-3.16555 1.475848,-1.51668 2.460638,-4.20595 1.606388,-6.14211 -1.120409,-2.5394 -4.60407,-3.64941 -7.370529,-3.87426 -2.18412,-0.17752 -6.23661,2.07887 -6.23661,2.07887 -0.21929,-5.26584 -4.1749187,-11.2632 -8.3389387,-14.15436 -3.782682,-1.81536 -9.203706,-1.2045 -12.656159,1.17979 -1.730598,1.19516 -3.0783463,4.89585 -3.0783463,4.89585 0,0 0.9120513,17.47291 -1.817954,21.30789 -1.466824,2.06053 -3.289713,9.22476 -2.173362,10.96131 7.81624,1.88624 18.6003005,2.26844 27.567729,0.13397 z"
         id="path4552"
         inkscape:connector-curvature="0"
         sodipodi:nodetypes="ccsccssssccscccscscc" />
      <path
         sodipodi:nodetypes="czssc"
         inkscape:connector-curvature="0"
         id="path4530"
         d="m -10.129269,203.72077 c 1.2503783,3.91203 1.7467823,9.08878 1.5943823,12.44651 -0.1524,3.35773 -1.431502,7.60897 -4.1433863,8.3382 -4.443883,1.19496 -6.499131,-4.20506 -6.041739,-7.70008 0.726527,-5.55154 5.34198,-10.02348 8.590743,-13.08463 z"
         style="display:inline;opacity:1;fill:#000000;stroke:#000000;stroke-width:0.26458332px;stroke-linecap:butt;stroke-linejoin:miter;stroke-opacity:1" />
      <path
         sodipodi:nodetypes="csccssssccscccsssc"
         inkscape:connector-curvature="0"
         id="path4544"
         d="m 8.3690253,229.37539 c 0,0 3.5165907,-0.77488 4.4412197,-2.17337 0.782499,-1.18352 0.614209,-4.11049 0.614209,-4.11049 l -0.99218,-0.14174 c -0.45293,1.93381 -1.089999,3.436 -3.1183097,4.15774 -1.472089,0.35601 -3.520499,-0.44921 -4.81919,-1.22843 -1.604272,-0.96256 -3.96875298,-3.96875 -3.96875298,-3.96875 l 3.21279298,-2.55133 c 0,0 6.108081,3.54902 10.2053607,3.54352 3.608411,-0.005 9.48427,-0.57944 12.000751,-3.16555 1.475848,-1.51668 2.460638,-4.20595 1.606388,-6.14211 -1.120409,-2.5394 -4.60407,-3.64941 -7.370529,-3.87426 -2.18412,-0.17752 -6.23661,2.07887 -6.23661,2.07887 -0.21929,-5.26584 -4.1749187,-11.2632 -8.3389387,-14.15436 -3.782682,-1.81536 -9.203706,-1.2045 -12.656159,1.17979 -1.730598,1.19516 -2.417817,3.1757 -3.0547223,5.15571 -2.135983,6.64034 0.8884273,17.21305 -1.841578,21.04803 -1.466824,2.06053 -3.289713,9.22476 -2.173362,10.96131"
         style="display:inline;opacity:1;fill:none;stroke:#000000;stroke-width:0.76499999;stroke-linecap:butt;stroke-linejoin:miter;stroke-miterlimit:4;stroke-dasharray:none;stroke-opacity:1" />
      <path
         style="display:inline;opacity:1;fill:#e8a02b;fill-opacity:1;stroke:#000000;stroke-width:0.26499999;stroke-linecap:butt;stroke-linejoin:miter;stroke-miterlimit:4;stroke-dasharray:none;stroke-opacity:1"
         d="m -9.9166567,202.34528 c -1.1431593,-0.3881 -2.7230343,-1.14801 -3.0857593,-2.29947 -0.400009,-1.26981 0.404343,-3.17641 1.202711,-3.80859 0.798368,-0.63217 1.003612,-0.49541 2.1102373,-0.15764 -0.6306263,-1.80038 -2.4280143,-7.12305 2.500164,-9.06316 2.165648,-0.85256 5.887094,0.30681 7.83700502,5.79615 0.68038098,-1.15899 1.24138998,-0.99306 2.21900998,-1.05211 0.977614,-0.0591 2.144093,1.75828 2.372013,3.20723 0.24633,1.56601 -1.672648,3.04056 -2.873142,4.07586 -1.50595798,1.29873 -3.11974398,1.55364 -4.810855,1.87089 -1.422887,0.26693 -2.917714,0.0526 -4.343129,-0.20045 -1.401428,-0.24883 -1.930171,-0.51358 -1.930171,-0.51358"
         id="path4548"
         inkscape:connector-curvature="0"
         sodipodi:nodetypes="cszcsczssssc" />
      <path
         sodipodi:nodetypes="cssssssssc"
         inkscape:connector-curvature="0"
         id="path4546"
         d="m -9.7701257,202.40948 c -1.1431593,-0.3881 -2.8695653,-1.21221 -3.2322903,-2.36367 -0.400009,-1.26981 0.05657,-3.13124 1.202711,-3.80859 1.9554073,-1.15561 4.7533053,1.20238 7.0158273,1.00226 3.646133,-0.32249 5.17871102,-5.22815 6.915597,-5.44561 2.199135,-0.27534 2.825486,1.69807 3.107005,3.17382 0.29705,1.55718 -1.672648,3.04056 -2.873142,4.07586 -1.50595798,1.29873 -3.11974398,1.55364 -4.810855,1.87089 -1.422887,0.26693 -2.917714,0.0526 -4.343129,-0.20045 -1.401428,-0.24883 -4.0090403,-1.26953 -4.0090403,-1.26953"
         style="display:inline;opacity:1;fill:none;stroke:#000000;stroke-width:0.56500006;stroke-linecap:butt;stroke-linejoin:miter;stroke-miterlimit:4;stroke-dasharray:none;stroke-opacity:1" />
      <path
         sodipodi:nodetypes="cccccc"
         inkscape:connector-curvature="0"
         id="path4550"
         d="m -9.7283637,195.40201 c 3.210163,-1.63352 6.534368,-2.69683 9.92238102,-3.4411 l 0.501129,0.83522 c -1.222068,1.49952 -1.92075102,3.05026 -4.34313002,4.30972 -1.485948,0.36964 -3.642303,-0.19928 -6.013565,-1.06908 z"
         style="display:inline;opacity:1;fill:#000000;stroke:none;stroke-width:0.26458332px;stroke-linecap:butt;stroke-linejoin:miter;stroke-opacity:1" />
      <ellipse
         ry="6.0495872"
         rx="5.2477789"
         cy="208.0305"
         cx="9.5484514"
         id="path4574"
         style="display:inline;opacity:1;vector-effect:none;fill:#ffffff;fill-opacity:1;fill-rule:evenodd;stroke:#000000;stroke-width:0.85900003;stroke-linecap:butt;stroke-linejoin:miter;stroke-miterlimit:4;stroke-dasharray:none;stroke-dashoffset:0;stroke-opacity:1;marker:none" />
      <ellipse
         ry="6.6514039"
         rx="5.9832301"
         cy="210.77"
         cx="-1.0755051"
         id="path4572"
         style="display:inline;opacity:1;vector-effect:none;fill:#ffffff;fill-opacity:1;fill-rule:evenodd;stroke:#000000;stroke-width:0.85900003;stroke-linecap:butt;stroke-linejoin:miter;stroke-miterlimit:4;stroke-dasharray:none;stroke-dashoffset:0;stroke-opacity:1;marker:none" />
      <ellipse
         ry="4.543582"
         rx="3.7417734"
         cy="211.1375"
         cx="-0.37393838"
         id="path4595"
         style="display:inline;opacity:1;vector-effect:none;fill:#000000;fill-opacity:1;fill-rule:evenodd;stroke:none;stroke-width:0.85900003;stroke-linecap:butt;stroke-linejoin:miter;stroke-miterlimit:4;stroke-dasharray:none;stroke-dashoffset:0;stroke-opacity:1;marker:none" />
      <ellipse
         ry="4.2763124"
         rx="3.6415474"
         cy="208.19753"
         cx="10.951615"
         id="path4597"
         style="display:inline;opacity:1;vector-effect:none;fill:#000000;fill-opacity:1;fill-rule:evenodd;stroke:none;stroke-width:0.85900003;stroke-linecap:butt;stroke-linejoin:miter;stroke-miterlimit:4;stroke-dasharray:none;stroke-dashoffset:0;stroke-opacity:1;marker:none" />
      <path
         sodipodi:nodetypes="cssscsc"
         inkscape:connector-curvature="0"
         id="path4599"
         d="m 20.239234,209.50047 c 0,0 1.151361,-1.22304 1.904291,-1.5368 1.58243,-0.65942 3.536979,-1.24598 5.11153,-0.56794 1.204889,0.51885 2.17859,1.84289 2.372019,3.14041 0.195842,1.31369 -1.369759,3.74178 -1.369759,3.74178 0,0 -2.059241,-2.85698 -3.541321,-3.70837 -1.33033,-0.76422 -4.47676,-1.06908 -4.47676,-1.06908 z"
         style="display:inline;opacity:1;fill:#000000;stroke:none;stroke-width:0.26458332px;stroke-linecap:butt;stroke-linejoin:miter;stroke-opacity:1" />
      <path
         sodipodi:nodetypes="ccascc"
         inkscape:connector-curvature="0"
         id="path4601"
         d="m 3.6351143,219.32263 -3.10700998,2.57247 c 1.41703098,1.93866 3.72931998,4.47885 6.38106198,5.04471 1.505638,0.32129 2.848419,0.45274 4.4767577,-1.1359 0.714962,-0.69752 1.135901,-2.77292 1.135901,-2.77292 -4.7481597,-0.98238 -6.4942107,-2.38861 -8.8867107,-3.70836 z"
         style="display:inline;opacity:1;fill:#000000;stroke:none;stroke-width:0.26458332px;stroke-linecap:butt;stroke-linejoin:miter;stroke-opacity:1" />
      <path
         sodipodi:nodetypes="cccc"
         inkscape:connector-curvature="0"
         id="path4603"
         d="m 0.96241532,221.49419 1.97111398,-1.5368 c 2.627415,1.60873 3.753506,3.72556 3.173825,6.04698 -2.345079,-0.40072 -3.444169,-2.98192 -5.14493898,-4.51018 z"
         style="display:inline;opacity:1;fill:#aa0000;stroke:#000000;stroke-width:0.26458332px;stroke-linecap:butt;stroke-linejoin:miter;stroke-opacity:1" />
      <path
         sodipodi:nodetypes="cc"
         inkscape:connector-curvature="0"
         id="path4605"
         d="m -0.54097368,222.52986 c 1.88609998,-1.30137 3.73878998,-3.8722 5.54583798,-3.90881"
         style="display:inline;opacity:1;fill:none;stroke:#000000;stroke-width:0.66500002;stroke-linecap:round;stroke-linejoin:miter;stroke-miterlimit:4;stroke-dasharray:none;stroke-opacity:1" />
      <path
         sodipodi:nodetypes="csscccsscccsscc"
         inkscape:connector-curvature="0"
         d="m 10.283445,222.93077 c 0,0 -0.190381,0.79151 0.0334,1.06908 0.201729,0.25021 0.755758,0.33894 1.069078,0.26726 0.423942,-0.097 0.868632,-0.86862 0.868632,-0.86862 z m -3.1571297,-1.21942 c 0,0 -0.360371,0.99577 -0.150339,1.35305 0.318648,0.54206 1.316709,0.76675 1.93771,0.66817 0.553538,-0.0879 1.002258,-0.91874 1.002258,-0.91874 -0.942459,-0.28978 -1.805279,-0.64517 -2.789629,-1.10248 z m -0.65146,-0.25057 c 0,0 -0.74095,0.86056 -1.302951,0.93545 -1.043308,0.13902 -2.06193,-0.34628 -2.305193,-1.30294 -0.148752,-0.58501 0.701585,-1.33635 0.701585,-1.33635 0.803719,0.61513 1.791247,1.17774 2.906559,1.70384 z"
         style="display:inline;opacity:1;fill:#ffffff;stroke:#000000;stroke-width:0.26458332px;stroke-linecap:butt;stroke-linejoin:miter;stroke-opacity:1"
         id="path4611" />
      <path
         sodipodi:nodetypes="csscsc"
         inkscape:connector-curvature="0"
         id="path4614"
         d="m -9.8211057,195.80637 c 0,0 -1.2101463,-3.98979 -0.4488473,-5.85863 0.7973493,-1.95733 3.0589193,-3.44501 4.7719493,-3.21279 4.79644302,0.6502 5.95312502,5.74051 5.95312502,5.74051 0,0 -1.72334002,3.30789 -4.22861102,4.39397 -1.813747,0.7863 -4.3106,-0.78289 -6.047616,-1.06306 z"
         style="display:inline;opacity:1;fill:none;stroke:#000000;stroke-width:0.56500006;stroke-linecap:butt;stroke-linejoin:miter;stroke-miterlimit:4;stroke-dasharray:none;stroke-opacity:1" />
    </g>
  </g>
</svg>
